<svg width="9" height="9" viewBox="0 0 9 9" fill="none" xmlns="http://www.w3.org/2000/svg">
<g clip-path="url(#clip0_122_1615)">
<path d="M7.5 3H5.3955L5.81662 1.73737C5.89237 1.50937 5.85412 1.25663 5.7135 1.06163C5.57287 0.866625 5.34488 0.75 5.1045 0.75H4.5C4.38862 0.75 4.28325 0.7995 4.21162 0.885L2.44912 3H1.5C1.08637 3 0.75 3.33637 0.75 3.75V7.125C0.75 7.53862 1.08637 7.875 1.5 7.875H6.49012C6.64271 7.87449 6.79154 7.82769 6.91696 7.74078C7.04237 7.65387 7.13845 7.53094 7.1925 7.38825L8.22637 4.63162C8.24207 4.58952 8.25007 4.54494 8.25 4.5V3.75C8.25 3.33637 7.91362 3 7.5 3ZM1.5 3.75H2.25V7.125H1.5V3.75ZM7.5 4.43212L6.49012 7.125H3V3.51075L4.6755 1.5H5.10525L4.5195 3.25612C4.50048 3.31249 4.49518 3.37258 4.50403 3.43141C4.51288 3.49024 4.53562 3.54611 4.57037 3.59439C4.60513 3.64267 4.65089 3.68197 4.70387 3.70904C4.75685 3.7361 4.81551 3.75014 4.875 3.75H7.5V4.43212Z" fill="#F8F8F8"/>
</g>
<defs>
<clipPath id="clip0_122_1615">
<rect width="9" height="9" fill="white"/>
</clipPath>
</defs>
</svg>
