<svg width="45" height="45" viewBox="0 0 45 45" fill="none" xmlns="http://www.w3.org/2000/svg">
<path d="M24.628 43.692H20.671C19.9219 43.6909 19.2037 43.3929 18.6739 42.8631C18.1442 42.3334 17.8461 41.6152 17.845 40.866V37.734C17.8474 37.4525 17.7663 37.1766 17.612 36.9412C17.4577 36.7057 17.2371 36.5212 16.978 36.411L16.76 36.318C16.4949 36.2048 16.202 36.1733 15.9189 36.2276C15.6358 36.282 15.3754 36.4197 15.171 36.623L12.9541 38.84C12.4234 39.37 11.7041 39.6678 10.9541 39.6678C10.204 39.6678 9.48469 39.37 8.95405 38.84L6.15405 36.04C5.624 35.5094 5.32627 34.79 5.32627 34.04C5.32627 33.29 5.624 32.5706 6.15405 32.04L8.46405 29.731C8.66668 29.5239 8.80334 29.2613 8.85674 28.9765C8.91014 28.6917 8.87788 28.3975 8.76405 28.131L8.74105 28.076C8.63475 27.8041 8.44943 27.5703 8.20898 27.4047C7.96853 27.2391 7.68399 27.1493 7.39205 27.147H4.12605C3.37679 27.1462 2.65845 26.8482 2.12864 26.3184C1.59884 25.7886 1.30084 25.0703 1.30005 24.321V20.364C1.30084 19.6147 1.59884 18.8964 2.12864 18.3666C2.65845 17.8368 3.37679 17.5388 4.12605 17.538H7.42605C7.71749 17.5352 8.00147 17.4455 8.24162 17.2804C8.48176 17.1152 8.66716 16.8821 8.77405 16.611L8.78905 16.576C8.90301 16.3096 8.93534 16.0153 8.88194 15.7305C8.82853 15.4456 8.6918 15.1831 8.48905 14.976L6.15905 12.646C5.62876 12.1155 5.33086 11.3961 5.33086 10.646C5.33086 9.8959 5.62876 9.17651 6.15905 8.646L8.95905 5.846C9.48969 5.31595 10.209 5.01822 10.959 5.01822C11.7091 5.01822 12.4284 5.31595 12.959 5.846L15.226 8.113C15.4357 8.31912 15.7026 8.45724 15.992 8.50933C16.2813 8.56142 16.5797 8.52506 16.848 8.405L16.948 8.364C17.213 8.25395 17.4397 8.06825 17.5998 7.83011C17.7599 7.59196 17.8462 7.31193 17.848 7.025V3.825C17.8494 3.07652 18.1472 2.35903 18.6762 1.82959C19.2053 1.30014 19.9226 1.00185 20.671 1H24.6331C25.3822 1.00106 26.1004 1.29914 26.6302 1.82888C27.1599 2.35863 27.458 3.07682 27.459 3.826V6.875C27.4583 7.1624 27.5436 7.44344 27.704 7.68191C27.8644 7.92038 28.0926 8.10535 28.359 8.213C28.454 8.25 28.548 8.288 28.642 8.327C28.9034 8.43321 29.1904 8.45931 29.4665 8.40197C29.7427 8.34463 29.9956 8.20645 30.193 8.005L32.346 5.853C32.8766 5.32271 33.5959 5.02481 34.346 5.02481C35.0961 5.02481 35.8155 5.32271 36.346 5.853L39.146 8.653C39.6761 9.18364 39.9738 9.90298 39.9738 10.653C39.9738 11.403 39.6761 12.1224 39.146 12.653L37.08 14.71C36.8769 14.9117 36.7388 15.1696 36.6834 15.4504C36.6279 15.7312 36.6578 16.0222 36.7691 16.286C36.8244 16.412 36.8777 16.5387 36.929 16.666C37.0396 16.9258 37.2244 17.1472 37.4603 17.3023C37.6962 17.4575 37.9727 17.5394 38.2551 17.538H41.1711C41.9203 17.5388 42.6387 17.8368 43.1685 18.3666C43.6983 18.8964 43.9963 19.6147 43.997 20.364V24.326C43.996 25.0752 43.6979 25.7934 43.1682 26.3231C42.6384 26.8529 41.9202 27.1509 41.1711 27.152H38.284C38.0008 27.1504 37.7234 27.2329 37.487 27.389C37.2506 27.5451 37.0658 27.7679 36.956 28.029C36.9014 28.1623 36.845 28.2957 36.787 28.429C36.6773 28.6923 36.6486 28.9822 36.7045 29.2619C36.7605 29.5416 36.8985 29.7982 37.1011 29.999L39.1401 32.038C39.6701 32.5686 39.9678 33.288 39.9678 34.038C39.9678 34.788 39.6701 35.5074 39.1401 36.038L36.34 38.838C36.0776 39.1009 35.7658 39.3095 35.4226 39.4519C35.0794 39.5942 34.7116 39.6674 34.34 39.6674C33.9685 39.6674 33.6006 39.5942 33.2575 39.4519C32.9143 39.3095 32.6025 39.1009 32.34 38.838L30.24 36.738C30.0425 36.5361 29.7892 36.3977 29.5125 36.3405C29.2359 36.2833 28.9485 36.31 28.687 36.417C28.576 36.464 28.463 36.509 28.351 36.552C28.0847 36.6592 27.8565 36.8438 27.6961 37.0819C27.5356 37.3201 27.4503 37.6009 27.451 37.888V40.865C27.4503 41.6138 27.1527 42.3318 26.6236 42.8617C26.0944 43.3916 25.3769 43.6902 24.628 43.692ZM16.18 34.814C16.5684 34.8144 16.9524 34.8951 17.308 35.051L17.508 35.136C18.0192 35.3509 18.4551 35.7127 18.7604 36.1755C19.0658 36.6384 19.2268 37.1815 19.223 37.736V40.868C19.2241 41.2512 19.3772 41.6182 19.6487 41.8886C19.9202 42.159 20.2879 42.3105 20.671 42.31H24.6331C25.0148 42.3079 25.3803 42.1549 25.6497 41.8844C25.919 41.6139 26.0705 41.2478 26.0711 40.866V37.889C26.0711 37.324 26.2406 36.772 26.5575 36.3043C26.8745 35.8365 27.3243 35.4745 27.8491 35.265C27.9517 35.225 28.0534 35.184 28.1541 35.142C28.6682 34.9293 29.234 34.8745 29.7794 34.9848C30.3248 35.095 30.8249 35.3653 31.216 35.761L33.316 37.861C33.587 38.1318 33.9544 38.284 34.3375 38.284C34.7207 38.284 35.0881 38.1318 35.359 37.861L38.159 35.061C38.4296 34.7899 38.5816 34.4225 38.5816 34.0395C38.5816 33.6565 38.4296 33.2891 38.159 33.018L36.12 30.979C35.7228 30.5807 35.4534 30.0729 35.3465 29.5207C35.2396 28.9684 35.3 28.3967 35.5201 27.879C35.5727 27.757 35.6241 27.6343 35.674 27.511C35.8837 26.9916 36.2449 26.5473 36.7106 26.2361C37.1763 25.9248 37.7249 25.761 38.285 25.766H41.1711C41.5539 25.7655 41.9208 25.6132 42.1915 25.3425C42.4622 25.0718 42.6145 24.7048 42.6151 24.322V20.364C42.6145 19.9812 42.4622 19.6142 42.1915 19.3435C41.9208 19.0728 41.5539 18.9205 41.1711 18.92H38.2551C37.6971 18.9246 37.1506 18.7618 36.6861 18.4527C36.2216 18.1436 35.8603 17.7024 35.649 17.186C35.6024 17.07 35.5537 16.9547 35.5031 16.84C35.2817 16.3214 35.2205 15.7483 35.3274 15.1946C35.4343 14.641 35.7045 14.1319 36.1031 13.733L38.164 11.672C38.4343 11.4009 38.5861 11.0338 38.5861 10.651C38.5861 10.2682 38.4343 9.90106 38.164 9.63L35.3641 6.83C35.093 6.55942 34.7256 6.40745 34.3426 6.40745C33.9595 6.40745 33.5922 6.55942 33.3211 6.83L31.171 8.982C30.7808 9.37684 30.2821 9.64677 29.7381 9.75752C29.1942 9.86827 28.6296 9.81484 28.116 9.604C28.0307 9.56867 27.9447 9.53533 27.858 9.504C27.3312 9.29512 26.8792 8.93285 26.5605 8.46411C26.2419 7.99537 26.0714 7.44177 26.0711 6.875V3.826C26.0705 3.44319 25.9182 3.07621 25.6475 2.80552C25.3768 2.53483 25.0099 2.38253 24.6271 2.382H20.671C20.2882 2.38253 19.9213 2.53483 19.6506 2.80552C19.3799 3.07621 19.2276 3.44319 19.227 3.826V7.026C19.2256 7.58689 19.058 8.13478 18.7455 8.60054C18.433 9.06629 17.9895 9.42904 17.471 9.643L17.386 9.679C16.8638 9.90996 16.284 9.97788 15.7225 9.87385C15.1609 9.76983 14.6439 9.49872 14.239 9.096L11.971 6.829C11.7 6.55842 11.3326 6.40645 10.9495 6.40645C10.5665 6.40645 10.1991 6.55842 9.92805 6.829L7.12805 9.629C6.85747 9.9001 6.7055 10.2675 6.7055 10.6505C6.7055 11.0335 6.85747 11.4009 7.12805 11.672L9.45805 14.002C9.85475 14.4023 10.1236 14.9115 10.2304 15.4648C10.3372 16.0182 10.2772 16.5908 10.058 17.11L9.40805 16.873L10.047 17.135C9.83645 17.6601 9.47395 18.1103 9.00595 18.4281C8.53796 18.7459 7.98576 18.9169 7.42005 18.919H4.12005C3.73724 18.9195 3.37026 19.0718 3.09957 19.3425C2.82888 19.6132 2.67658 19.9802 2.67605 20.363V24.325C2.67658 24.7078 2.82888 25.0748 3.09957 25.3455C3.37026 25.6162 3.73724 25.7685 4.12005 25.769H7.38605C7.95455 25.771 8.50936 25.9437 8.97862 26.2646C9.44789 26.5855 9.80999 27.0399 10.018 27.569L10.032 27.603C10.251 28.1226 10.3109 28.6954 10.2041 29.2491C10.0973 29.8027 9.82858 30.3122 9.43205 30.713L7.12205 33.022C6.85147 33.2931 6.6995 33.6605 6.6995 34.0435C6.6995 34.4265 6.85147 34.7939 7.12205 35.065L9.92205 37.865C10.1931 38.1356 10.5605 38.2875 10.9435 38.2875C11.3266 38.2875 11.694 38.1356 11.965 37.865L14.182 35.648C14.4434 35.3838 14.7546 35.1741 15.0975 35.0309C15.4405 34.8878 15.8084 34.814 16.18 34.814Z" fill="#F6F6F6" stroke="white"/>
<path d="M22.576 29.211C21.2101 29.212 19.8746 28.8079 18.7384 28.0497C17.6023 27.2916 16.7165 26.2135 16.1931 24.9519C15.6697 23.6903 15.5322 22.3017 15.7981 20.962C16.064 19.6222 16.7212 18.3914 17.6867 17.4252C18.6522 16.459 19.8825 15.8009 21.2221 15.534C22.5617 15.2672 23.9503 15.4037 25.2123 15.9261C26.4743 16.4486 27.553 17.3336 28.312 18.4693C29.0709 19.6049 29.476 20.9401 29.476 22.306C29.4739 24.1358 28.7464 25.8901 27.453 27.1845C26.1596 28.4788 24.4058 29.2076 22.576 29.211ZM22.576 16.783C21.4837 16.783 20.4159 17.1069 19.5076 17.7138C18.5993 18.3207 17.8915 19.1832 17.4734 20.1924C17.0554 21.2016 16.946 22.3121 17.1591 23.3835C17.3722 24.4548 17.8983 25.4389 18.6707 26.2114C19.4431 26.9838 20.4272 27.5098 21.4985 27.7229C22.5699 27.936 23.6804 27.8266 24.6896 27.4086C25.6988 26.9906 26.5613 26.2827 27.1682 25.3744C27.7751 24.4662 28.099 23.3984 28.099 22.306C28.0982 20.8412 27.5162 19.4365 26.4807 18.4005C25.4452 17.3644 24.0408 16.7816 22.576 16.78V16.783Z" fill="#F6F6F6" stroke="white"/>
</svg>
