<svg width="8" height="8" viewBox="0 0 8 8" fill="none" xmlns="http://www.w3.org/2000/svg">
<path d="M6.65 7C5.93333 7 5.23478 6.84022 4.55433 6.52067C3.87389 6.20111 3.27111 5.77889 2.746 5.254C2.22089 4.72911 1.79867 4.12633 1.47933 3.44567C1.16 2.765 1.00022 2.06644 1 1.35C1 1.25 1.03333 1.16667 1.1 1.1C1.16667 1.03333 1.25 1 1.35 1H2.7C2.77778 1 2.84722 1.025 2.90833 1.075C2.96944 1.125 3.00556 1.18889 3.01667 1.26667L3.23333 2.43333C3.24444 2.51111 3.243 2.582 3.229 2.646C3.215 2.71 3.18311 2.76689 3.13333 2.81667L2.33333 3.63333C2.56667 4.03333 2.85833 4.40833 3.20833 4.75833C3.55833 5.10833 3.94444 5.41111 4.36667 5.66667L5.15 4.88333C5.2 4.83333 5.26533 4.79589 5.346 4.771C5.42667 4.74611 5.50578 4.73911 5.58333 4.75L6.73333 4.98333C6.81111 5 6.875 5.03756 6.925 5.096C6.975 5.15444 7 5.22244 7 5.3V6.65C7 6.75 6.96667 6.83333 6.9 6.9C6.83333 6.96667 6.75 7 6.65 7Z" fill="#F8F8F8"/>
</svg>
