<svg width="9" height="9" viewBox="0 0 9 9" fill="none" xmlns="http://www.w3.org/2000/svg">
<g clip-path="url(#clip0_122_1619)">
<path d="M4.49939 4.3125C4.25075 4.3125 4.01229 4.21373 3.83648 4.03791C3.66066 3.8621 3.56189 3.62364 3.56189 3.375C3.56189 3.12636 3.66066 2.8879 3.83648 2.71209C4.01229 2.53627 4.25075 2.4375 4.49939 2.4375C4.74803 2.4375 4.98649 2.53627 5.1623 2.71209C5.33812 2.8879 5.43689 3.12636 5.43689 3.375C5.43689 3.49811 5.41264 3.62002 5.36553 3.73377C5.31841 3.84751 5.24936 3.95086 5.1623 4.03791C5.07525 4.12497 4.9719 4.19402 4.85816 4.24114C4.74441 4.28825 4.6225 4.3125 4.49939 4.3125ZM4.49939 0.75C3.8032 0.75 3.13552 1.02656 2.64323 1.51884C2.15095 2.01113 1.87439 2.67881 1.87439 3.375C1.87439 5.34375 4.49939 8.25 4.49939 8.25C4.49939 8.25 7.12439 5.34375 7.12439 3.375C7.12439 2.67881 6.84783 2.01113 6.35554 1.51884C5.86326 1.02656 5.19558 0.75 4.49939 0.75Z" fill="#F8F8F8"/>
</g>
<defs>
<clipPath id="clip0_122_1619">
<rect width="9" height="9" fill="white" transform="translate(-0.000610352)"/>
</clipPath>
</defs>
</svg>
