<svg width="7" height="7" viewBox="0 0 7 7" fill="none" xmlns="http://www.w3.org/2000/svg">
<g clip-path="url(#clip0_122_1623)">
<path d="M5.60779 2.44687C5.58509 2.37689 5.54229 2.31513 5.48474 2.26928C5.42718 2.22344 5.35741 2.19554 5.28412 2.18906L3.89217 2.06906L3.34654 0.771562C3.31814 0.70348 3.27022 0.645325 3.20883 0.604419C3.14744 0.563514 3.07531 0.541687 3.00154 0.541687C2.92777 0.541687 2.85565 0.563514 2.79426 0.604419C2.73287 0.645325 2.68495 0.70348 2.65654 0.771562L2.11256 2.06906L0.718965 2.18977C0.64538 2.19595 0.575258 2.22372 0.517393 2.2696C0.459528 2.31547 0.416496 2.37741 0.393693 2.44765C0.37089 2.51789 0.369331 2.59329 0.389213 2.66441C0.409094 2.73553 0.44953 2.79919 0.50545 2.84742L1.56272 3.77133L1.24584 5.14336C1.22908 5.21516 1.23387 5.2903 1.25959 5.3594C1.28531 5.4285 1.33082 5.48848 1.39045 5.53185C1.45007 5.57521 1.52116 5.60004 1.59482 5.60323C1.66848 5.60642 1.74144 5.58782 1.80459 5.54976L2.9999 4.8232L4.19779 5.54976C4.26094 5.58782 4.33391 5.60642 4.40756 5.60323C4.48122 5.60004 4.55231 5.57521 4.61193 5.53185C4.67156 5.48848 4.71708 5.4285 4.7428 5.3594C4.76852 5.2903 4.7733 5.21516 4.75654 5.14336L4.4399 3.76992L5.49693 2.84742C5.55285 2.79903 5.5932 2.73518 5.61293 2.66391C5.63265 2.59264 5.63087 2.51713 5.60779 2.44687ZM5.25107 2.56406L4.19404 3.48656C4.1426 3.53131 4.10433 3.58924 4.08335 3.65412C4.06237 3.719 4.05948 3.78837 4.07498 3.85476L4.39256 5.22914L3.19561 4.50258C3.13721 4.46701 3.07015 4.4482 3.00178 4.4482C2.9334 4.4482 2.86635 4.46701 2.80795 4.50258L1.61264 5.22914L1.92811 3.8557C1.94361 3.7893 1.94072 3.71993 1.91974 3.65506C1.89876 3.59018 1.86049 3.53225 1.80904 3.4875L0.751543 2.56547C0.751457 2.56477 0.751457 2.56406 0.751543 2.56336L2.14467 2.44289C2.21268 2.4369 2.27777 2.41244 2.33291 2.37217C2.38805 2.3319 2.43115 2.27734 2.45756 2.21437L3.00154 0.918515L3.54529 2.21437C3.5717 2.27734 3.6148 2.3319 3.66994 2.37217C3.72508 2.41244 3.79017 2.4369 3.85818 2.44289L5.25154 2.56336V2.565L5.25107 2.56406Z" fill="#F8F8F8"/>
</g>
<defs>
<clipPath id="clip0_122_1623">
<rect width="6" height="6" fill="white" transform="translate(0.00158691 0.166626)"/>
</clipPath>
</defs>
</svg>
